<svg width="238" height="141" viewBox="0 0 238 141" fill="none" xmlns="http://www.w3.org/2000/svg">
<rect width="238" height="140" fill="black" fill-opacity="0" transform="translate(0 1)"/>
<rect width="238" height="53" fill="black" fill-opacity="0" transform="translate(0 88)"/>
<rect width="238" height="53" fill="black" fill-opacity="0" transform="translate(0 88)"/>
<path d="M58.3813 122.359C57.9906 125.953 56.7016 128.703 54.5141 130.609C52.3422 132.516 49.4438 133.469 45.8188 133.469C43.2875 133.469 41.0453 132.836 39.0922 131.57C37.1547 130.305 35.6547 128.516 34.5922 126.203C33.5297 123.875 32.9906 121.219 32.975 118.234V113.805C32.975 110.773 33.5063 108.086 34.5688 105.742C35.6313 103.398 37.1547 101.594 39.1391 100.328C41.1391 99.0469 43.4359 98.4062 46.0297 98.4062C49.6859 98.4062 52.5688 99.3984 54.6781 101.383C56.8031 103.352 58.0375 106.078 58.3813 109.562H55.475C54.7563 103.766 51.6078 100.867 46.0297 100.867C42.9359 100.867 40.4672 102.023 38.6234 104.336C36.7953 106.648 35.8813 109.844 35.8813 113.922V118.094C35.8813 122.031 36.7719 125.172 38.5531 127.516C40.35 129.859 42.7719 131.031 45.8188 131.031C48.8344 131.031 51.1078 130.312 52.6391 128.875C54.1703 127.422 55.1156 125.25 55.475 122.359H58.3813ZM74.0553 130.562H90.9069V133H71.1491V98.875H74.0553V130.562ZM121.112 123.438H105.62L102.104 133H99.0809L111.995 98.875H114.737L127.651 133H124.651L121.112 123.438ZM106.511 120.977H120.198L113.354 102.391L106.511 120.977ZM157.763 124.609C157.763 122.719 157.099 121.227 155.771 120.133C154.443 119.023 152.013 117.977 148.482 116.992C144.95 115.992 142.372 114.906 140.747 113.734C138.435 112.078 137.278 109.906 137.278 107.219C137.278 104.609 138.349 102.492 140.489 100.867C142.646 99.2266 145.396 98.4062 148.739 98.4062C151.005 98.4062 153.028 98.8438 154.81 99.7188C156.607 100.594 157.997 101.812 158.982 103.375C159.966 104.938 160.458 106.68 160.458 108.602H157.552C157.552 106.273 156.755 104.406 155.161 103C153.568 101.578 151.427 100.867 148.739 100.867C146.13 100.867 144.052 101.453 142.505 102.625C140.958 103.781 140.185 105.297 140.185 107.172C140.185 108.906 140.88 110.32 142.271 111.414C143.661 112.508 145.888 113.477 148.95 114.32C152.013 115.148 154.333 116.016 155.911 116.922C157.489 117.812 158.677 118.883 159.474 120.133C160.271 121.383 160.669 122.859 160.669 124.562C160.669 127.25 159.591 129.406 157.435 131.031C155.294 132.656 152.466 133.469 148.95 133.469C146.544 133.469 144.333 133.039 142.318 132.18C140.318 131.32 138.794 130.117 137.747 128.57C136.716 127.023 136.2 125.25 136.2 123.25H139.083C139.083 125.656 139.982 127.555 141.778 128.945C143.575 130.336 145.966 131.031 148.95 131.031C151.607 131.031 153.739 130.445 155.349 129.273C156.958 128.102 157.763 126.547 157.763 124.609ZM197.952 133H195.046V116.641H175.546V133H172.663V98.875H175.546V114.203H195.046V98.875H197.952V133Z" fill="white"/>
<rect width="130" height="88.5" fill="black" fill-opacity="0" transform="translate(54 1)"/>
<path d="M92.0526 77.1569C97.2632 77.1569 101.816 75.5882 105.711 72.451C109.605 69.3137 111.763 65.3922 112.184 60.6863H126C125.737 65.549 124.053 70.1765 120.947 74.5686C117.842 78.9608 113.684 82.4641 108.474 85.0784C103.316 87.6928 97.8421 89 92.0526 89C80.4211 89 71.1579 85.1569 64.2632 77.4706C57.4211 69.732 54 59.1699 54 45.7843V43.3529C54 35.0915 55.5263 27.7451 58.5789 21.3137C61.6316 14.8824 66 9.88889 71.6842 6.33333C77.4211 2.77778 84.1842 1 91.9737 1C101.553 1 109.5 3.84967 115.816 9.54902C122.184 15.2484 125.579 22.6471 126 31.7451H112.184C111.763 26.2549 109.658 21.7582 105.868 18.2549C102.132 14.6993 97.5 12.9216 91.9737 12.9216C84.5526 12.9216 78.7895 15.5882 74.6842 20.9216C70.6316 26.2026 68.6053 33.8627 68.6053 43.902V46.6471C68.6053 56.4248 70.6316 63.9542 74.6842 69.2353C78.7368 74.5163 84.5263 77.1569 92.0526 77.1569Z" fill="#ccc"/>
<path d="M92.0526 77.1569C97.2632 77.1569 101.816 75.5882 105.711 72.451C109.605 69.3137 111.763 65.3922 112.184 60.6863H126C125.737 65.549 124.053 70.1765 120.947 74.5686C117.842 78.9608 113.684 82.4641 108.474 85.0784C103.316 87.6928 97.8421 89 92.0526 89C80.4211 89 71.1579 85.1569 64.2632 77.4706C57.4211 69.732 54 59.1699 54 45.7843V43.3529C54 35.0915 55.5263 27.7451 58.5789 21.3137C61.6316 14.8824 66 9.88889 71.6842 6.33333C77.4211 2.77778 84.1842 1 91.9737 1C101.553 1 109.5 3.84967 115.816 9.54902C122.184 15.2484 125.579 22.6471 126 31.7451H112.184C111.763 26.2549 109.658 21.7582 105.868 18.2549C102.132 14.6993 97.5 12.9216 91.9737 12.9216C84.5526 12.9216 78.7895 15.5882 74.6842 20.9216C70.6316 26.2026 68.6053 33.8627 68.6053 43.902V46.6471C68.6053 56.4248 70.6316 63.9542 74.6842 69.2353C78.7368 74.5163 84.5263 77.1569 92.0526 77.1569Z" fill="#ccc"/>
<path d="M145.947 77.6569C140.737 77.6569 136.184 76.0882 132.289 72.951C128.395 69.8137 126.421 65.2059 126 60.5H112C112.263 65.3627 113.947 70.6765 117.053 75.0686C120.158 79.4608 124.316 82.9641 129.526 85.5784C134.684 88.1928 140.158 89.5 145.947 89.5C157.579 89.5 166.842 85.6569 173.737 77.9706C180.579 70.232 184 59.6699 184 46.2843V43.8529C184 35.5915 182.474 28.2451 179.421 21.8137C176.368 15.3824 172 10.3889 166.316 6.83333C160.579 3.27778 153.816 1.5 146.026 1.5C136.447 1.5 128.5 4.34967 122.184 10.049C115.816 15.7484 112.421 23.402 112 32.5H126C126.421 27.0098 128.526 22.5131 132.316 19.0098C136.053 15.4542 140.5 13.4216 146.026 13.4216C153.447 13.4216 159.211 16.0882 163.316 21.4216C167.368 26.7026 169.395 34.3627 169.395 44.402V47.1471C169.395 56.9248 167.368 64.4542 163.316 69.7353C159.263 75.0163 153.474 77.6569 145.947 77.6569Z" fill="white"/>
<path d="M145.947 77.6569C140.737 77.6569 136.184 76.0882 132.289 72.951C128.395 69.8137 126.421 65.2059 126 60.5H112C112.263 65.3627 113.947 70.6765 117.053 75.0686C120.158 79.4608 124.316 82.9641 129.526 85.5784C134.684 88.1928 140.158 89.5 145.947 89.5C157.579 89.5 166.842 85.6569 173.737 77.9706C180.579 70.232 184 59.6699 184 46.2843V43.8529C184 35.5915 182.474 28.2451 179.421 21.8137C176.368 15.3824 172 10.3889 166.316 6.83333C160.579 3.27778 153.816 1.5 146.026 1.5C136.447 1.5 128.5 4.34967 122.184 10.049C115.816 15.7484 112.421 23.402 112 32.5H126C126.421 27.0098 128.526 22.5131 132.316 19.0098C136.053 15.4542 140.5 13.4216 146.026 13.4216C153.447 13.4216 159.211 16.0882 163.316 21.4216C167.368 26.7026 169.395 34.3627 169.395 44.402V47.1471C169.395 56.9248 167.368 64.4542 163.316 69.7353C159.263 75.0163 153.474 77.6569 145.947 77.6569Z" fill="white"/>
</svg>
